<svg xmlns="http://www.w3.org/2000/svg" width="600" height="100" viewBox="0 0 600 100">
  <defs>
    <style>
      .cls-1 {
        fill: #37c6ff;
        fill-rule: evenodd;
        opacity: 0.6;
      }
    </style>
  </defs>
  <path id="シェイプ_884" data-name="シェイプ 884" class="cls-1" d="M3202.96,1143.49l-640.83,5.18,629.7-102.03-3.66-15.74-627.33,112.21L3155.2,937.772l-7.16-14.826L2558.31,1137.87,3094.5,837.12l-10.41-13.342L2554.63,1133.15l457.41-384.6L2998.8,737.2,2549.94,1129.14,2911,675.465l-15.57-8.916L2544.44,1125.98l250.82-505.306-17.3-6.141L2538.32,1123.81l130.95-537.527-18.36-3.13L2531.82,1122.7l6.06-549.086h-18.73l6.05,549.086L2406.12,583.153l-18.37,3.13,130.96,537.527L2279.07,614.533l-17.31,6.141,250.83,505.316L2161.6,666.549l-15.57,8.916,361.05,453.675L2058.23,737.2l-13.24,11.347,457.41,384.6L1972.93,823.778l-10.4,13.342,536.19,300.75L1908.99,922.946l-7.17,14.826,594.37,205.338L1868.85,1030.9l-3.65,15.74,629.7,102.03-640.83-5.18v16.04l640.83-5.18-629.7,102.03,3.65,15.74,627.34-112.21-594.37,205.34,7.17,14.83,589.73-214.92L1962.53,1465.9l10.4,13.34,529.47-309.37-457.41,384.6,13.24,11.35,448.85-391.94-361.05,453.68,15.57,8.91,350.99-459.43-250.83,505.31,17.31,6.14,239.64-509.28-130.96,537.53,18.37,3.13,119.08-539.55-6.05,549.09h18.73l-6.06-549.09,119.09,539.55,18.36-3.13-130.95-537.53,239.64,509.28,17.3-6.14-250.82-505.31,350.99,459.43,15.57-8.91-361.06-453.68,448.86,391.94,13.24-11.35-457.41-384.6,529.46,309.37,10.41-13.34-536.19-300.74,589.73,214.92,7.16-14.83-594.36-205.34,627.33,112.21,3.66-15.74-629.7-102.03,640.83,5.18v-16.04Zm51.34,64.19-689.29-55.99,690-49.15-1.86-17.26-688.8,60.31L3229.9,982.036l-5.76-16.62L2562.31,1139.71l615.53-271.663-9.43-15.338L2558.98,1134.29l541.84-369.34-12.74-13.466L2554.47,1129.53l447.34-452.821-15.56-11.077L2548.96,1125.61l335.65-518.9-17.79-8.261L2542.67,1122.69l211.06-565.035-19.33-5.129L2535.84,1120.87l78.35-589.453-20.12-1.8-65.35,590.622-57.36-591.23-20.15,1.6,70.39,590.19L2330.72,550.525l-19.39,4.937,203.41,567.088L2197.69,595.136l-17.9,8.084,328.62,522.19L2077.37,661.128l-15.72,10.921,441.21,457.221-528.48-383.3L1961.46,759.3l536.82,374.687-605.58-287.6-9.64,15.243,611.82,277.751L1835.44,958.534l-5.98,16.562,663.3,170.134-687.94-67.13-2.1,17.24,689.3,55.99-690.01,49.15,1.87,17.27,688.8-60.32-665.56,163.56,5.76,16.62,661.83-174.3-615.52,271.66,9.43,15.34,609.43-281.58L1956.2,1538.07l12.75,13.47,533.61-378.05-447.35,452.82,15.57,11.08,437.28-459.98-335.65,518.9,17.79,8.26,324.15-524.23L2303.3,1745.37l19.32,5.13,198.57-568.35-78.35,589.45,20.12,1.8,65.34-590.62,57.37,591.23,20.14-1.6-70.38-590.19L2726.3,1752.5l19.4-4.94-203.42-567.09,317.06,527.42,17.9-8.09-328.63-522.19,431.05,464.28,15.71-10.92-441.2-457.22,528.47,383.31,12.93-13.34-536.83-374.69,605.59,287.61,9.64-15.25-611.82-277.75,659.43,180.85,5.99-16.56-663.31-170.14,687.94,67.13Z" transform="translate(-2232 -980)"/>
</svg>
