<svg xmlns="http://www.w3.org/2000/svg" width="1200" height="200" viewBox="0 0 1200 200">
  <defs>
    <style>
      .cls-1 {
        fill: #70d7ff;
        fill-rule: evenodd;
      }
    </style>
  </defs>
  <path id="シェイプ_780" data-name="シェイプ 780" class="cls-1" d="M422.642,2461.32a3.392,3.392,0,1,0-2.635-4.01A3.39,3.39,0,0,0,422.642,2461.32Zm-19.968-4.16a3.392,3.392,0,1,0-2.634-4.02A3.4,3.4,0,0,0,402.674,2457.16ZM382.707,2453a3.4,3.4,0,1,0-2.635-4.02A3.4,3.4,0,0,0,382.707,2453Zm-19.968-4.17a3.392,3.392,0,1,0-2.635-4.01A3.4,3.4,0,0,0,362.739,2448.83Zm-19.968-4.16a3.4,3.4,0,1,0-2.635-4.02A3.406,3.406,0,0,0,342.771,2444.67ZM322.8,2440.5a3.392,3.392,0,1,0-2.634-4.01A3.39,3.39,0,0,0,322.8,2440.5Zm-19.967-4.16a3.392,3.392,0,1,0-2.635-4.02A3.4,3.4,0,0,0,302.836,2436.34Zm-19.968-4.16a3.4,3.4,0,1,0-2.634-4.02A3.4,3.4,0,0,0,282.868,2432.18Zm-19.969-4.17a3.392,3.392,0,1,0-2.633-4.01A3.4,3.4,0,0,0,262.9,2428.01Zm-19.967-4.16a3.4,3.4,0,1,0-2.634-4.02A3.405,3.405,0,0,0,242.932,2423.85Zm-19.967-4.17a3.392,3.392,0,1,0-2.635-4.01A3.389,3.389,0,0,0,222.965,2419.68Zm192.466,26.27a3.392,3.392,0,1,0-2.635-4.01A3.392,3.392,0,0,0,415.431,2445.95Zm-19.967-4.16a3.392,3.392,0,1,0-2.635-4.01A3.4,3.4,0,0,0,395.464,2441.79Zm-19.968-4.16a3.4,3.4,0,1,0-2.635-4.02A3.406,3.406,0,0,0,375.5,2437.63Zm-19.968-4.17a3.392,3.392,0,1,0-2.635-4.01A3.391,3.391,0,0,0,355.528,2433.46Zm-19.967-4.16a3.392,3.392,0,1,0-2.635-4.02A3.4,3.4,0,0,0,335.561,2429.3Zm-19.968-4.17a3.392,3.392,0,1,0-2.635-4.01A3.39,3.39,0,0,0,315.593,2425.13Zm-19.968-4.16a3.392,3.392,0,1,0-2.635-4.02A3.4,3.4,0,0,0,295.625,2420.97Zm-19.968-4.16a3.4,3.4,0,1,0-2.634-4.02A3.4,3.4,0,0,0,275.657,2416.81Zm-19.968-4.17a3.392,3.392,0,1,0-2.634-4.01A3.39,3.39,0,0,0,255.689,2412.64Zm-19.967-4.16a3.392,3.392,0,1,0-2.635-4.02A3.4,3.4,0,0,0,235.722,2408.48Zm-18.581-10.81a3.392,3.392,0,1,0,2.635,4.02A3.4,3.4,0,0,0,217.141,2397.67Zm211.047,37.08a3.392,3.392,0,1,0-2.635-4.02A3.4,3.4,0,0,0,428.188,2434.75Zm-19.967-4.16a3.4,3.4,0,1,0-2.636-4.02A3.4,3.4,0,0,0,408.221,2430.59Zm-19.968-4.17a3.392,3.392,0,1,0-2.635-4.01A3.389,3.389,0,0,0,388.253,2426.42Zm-19.968-4.16a3.4,3.4,0,1,0-2.634-4.02A3.4,3.4,0,0,0,368.285,2422.26Zm-19.968-4.17a3.392,3.392,0,1,0-2.634-4.01A3.391,3.391,0,0,0,348.317,2418.09Zm-19.967-4.16a3.392,3.392,0,1,0-2.634-4.02A3.4,3.4,0,0,0,328.35,2413.93Zm-19.968-4.16a3.4,3.4,0,1,0-2.634-4.02A3.4,3.4,0,0,0,308.382,2409.77Zm-19.968-4.17a3.392,3.392,0,1,0-2.634-4.01A3.4,3.4,0,0,0,288.414,2405.6Zm-19.967-4.16a3.4,3.4,0,1,0-2.635-4.02A3.4,3.4,0,0,0,268.447,2401.44Zm-19.968-4.17a3.392,3.392,0,1,0-2.635-4.01A3.39,3.39,0,0,0,248.479,2397.27Zm-19.968-4.16a3.392,3.392,0,1,0-2.635-4.02A3.4,3.4,0,0,0,228.511,2393.11Zm192.467,26.27a3.392,3.392,0,1,0-2.635-4.01A3.389,3.389,0,0,0,420.978,2419.38Zm-19.968-4.16a3.4,3.4,0,1,0-2.635-4.02A3.4,3.4,0,0,0,401.01,2415.22Zm-19.968-4.17a3.392,3.392,0,1,0-2.635-4.01A3.39,3.39,0,0,0,381.042,2411.05Zm-19.967-4.16a3.392,3.392,0,1,0-2.635-4.02A3.4,3.4,0,0,0,361.075,2406.89Zm-19.969-4.16a3.4,3.4,0,1,0-2.634-4.02A3.4,3.4,0,0,0,341.106,2402.73Zm-19.967-4.17a3.392,3.392,0,1,0-2.634-4.01A3.4,3.4,0,0,0,321.139,2398.56Zm-19.968-4.16a3.4,3.4,0,1,0-2.634-4.02A3.405,3.405,0,0,0,301.171,2394.4Zm-19.967-4.17a3.392,3.392,0,1,0-2.634-4.01A3.39,3.39,0,0,0,281.2,2390.23Zm-19.968-4.16a3.392,3.392,0,1,0-2.635-4.02A3.4,3.4,0,0,0,261.236,2386.07Zm-19.968-4.17a3.392,3.392,0,1,0-2.634-4.01A3.391,3.391,0,0,0,241.268,2381.9Zm-19.967-4.16a3.392,3.392,0,1,0-2.635-4.02A3.4,3.4,0,0,0,221.3,2377.74Zm212.434,30.44a3.4,3.4,0,1,0-2.635-4.02A3.4,3.4,0,0,0,433.735,2408.18Zm-19.968-4.17a3.392,3.392,0,1,0-2.635-4.01A3.391,3.391,0,0,0,413.767,2404.01Zm-19.968-4.16a3.392,3.392,0,1,0-2.634-4.02A3.4,3.4,0,0,0,393.8,2399.85Zm-19.967-4.17a3.392,3.392,0,1,0-2.635-4.01A3.391,3.391,0,0,0,373.832,2395.68Zm-19.968-4.16a3.392,3.392,0,1,0-2.634-4.01A3.4,3.4,0,0,0,353.864,2391.52Zm-19.968-4.16a3.4,3.4,0,1,0-2.634-4.02A3.405,3.405,0,0,0,333.9,2387.36Zm-19.968-4.17a3.392,3.392,0,1,0-2.634-4.01A3.39,3.39,0,0,0,313.928,2383.19Zm-19.967-4.16a3.392,3.392,0,1,0-2.635-4.02A3.4,3.4,0,0,0,293.961,2379.03Zm-19.968-4.17a3.392,3.392,0,1,0-2.634-4.01A3.392,3.392,0,0,0,273.993,2374.86Zm-19.967-4.16a3.392,3.392,0,1,0-2.635-4.02A3.4,3.4,0,0,0,254.026,2370.7Zm-19.968-4.16a3.4,3.4,0,1,0-2.635-4.02A3.4,3.4,0,0,0,234.058,2366.54Zm192.466,26.27a3.4,3.4,0,1,0-2.635-4.02A3.4,3.4,0,0,0,426.524,2392.81Zm-19.967-4.17a3.392,3.392,0,1,0-2.635-4.01A3.391,3.391,0,0,0,406.557,2388.64Zm-19.968-4.16a3.392,3.392,0,1,0-2.635-4.02A3.4,3.4,0,0,0,386.589,2384.48Zm-19.968-4.16a3.4,3.4,0,1,0-2.635-4.02A3.4,3.4,0,0,0,366.621,2380.32Zm-19.968-4.17a3.392,3.392,0,1,0-2.634-4.01A3.391,3.391,0,0,0,346.653,2376.15Zm-19.967-4.16a3.4,3.4,0,1,0-2.635-4.02A3.4,3.4,0,0,0,326.686,2371.99Zm-19.968-4.17a3.392,3.392,0,1,0-2.635-4.01A3.39,3.39,0,0,0,306.718,2367.82Zm-19.968-4.16a3.392,3.392,0,1,0-2.634-4.02A3.4,3.4,0,0,0,286.75,2363.66Zm-19.968-4.16a3.4,3.4,0,1,0-2.634-4.02A3.405,3.405,0,0,0,266.782,2359.5Zm-19.967-4.17a3.392,3.392,0,1,0-2.635-4.01A3.4,3.4,0,0,0,246.815,2355.33Zm-19.968-4.16a3.4,3.4,0,1,0-2.634-4.02A3.4,3.4,0,0,0,226.847,2351.17Zm212.435,30.43a3.392,3.392,0,1,0-2.635-4.01A3.39,3.39,0,0,0,439.282,2381.6Zm-19.968-4.16a3.392,3.392,0,1,0-2.635-4.02A3.4,3.4,0,0,0,419.314,2377.44Zm-19.968-4.16a3.4,3.4,0,1,0-2.634-4.02A3.4,3.4,0,0,0,399.346,2373.28Zm-19.968-4.17a3.392,3.392,0,1,0-2.634-4.01A3.4,3.4,0,0,0,379.378,2369.11Zm-19.968-4.16a3.4,3.4,0,1,0-2.634-4.02A3.405,3.405,0,0,0,359.41,2364.95Zm-19.967-4.17a3.392,3.392,0,1,0-2.635-4.01A3.39,3.39,0,0,0,339.443,2360.78Zm-19.968-4.16a3.392,3.392,0,1,0-2.634-4.02A3.4,3.4,0,0,0,319.475,2356.62Zm-19.968-4.16a3.4,3.4,0,1,0-2.634-4.02A3.4,3.4,0,0,0,299.507,2352.46Zm-19.968-4.17a3.392,3.392,0,1,0-2.634-4.01A3.4,3.4,0,0,0,279.539,2348.29Zm-19.968-4.16a3.4,3.4,0,1,0-2.634-4.02A3.4,3.4,0,0,0,259.571,2344.13Zm-19.967-4.17a3.392,3.392,0,1,0-2.634-4.01A3.389,3.389,0,0,0,239.6,2339.96Zm192.467,26.28a3.4,3.4,0,1,0-2.635-4.02A3.4,3.4,0,0,0,432.071,2366.24Zm-19.968-4.17a3.392,3.392,0,1,0-2.635-4.01A3.4,3.4,0,0,0,412.1,2362.07Zm-19.968-4.16a3.4,3.4,0,1,0-2.634-4.02A3.406,3.406,0,0,0,392.135,2357.91Zm-19.967-4.17a3.392,3.392,0,1,0-2.635-4.01A3.39,3.39,0,0,0,372.168,2353.74Zm-19.968-4.16a3.392,3.392,0,1,0-2.635-4.02A3.4,3.4,0,0,0,352.2,2349.58Zm-19.968-4.17a3.392,3.392,0,1,0-2.635-4.01A3.39,3.39,0,0,0,332.232,2345.41Zm-19.968-4.16a3.392,3.392,0,1,0-2.634-4.02A3.4,3.4,0,0,0,312.264,2341.25Zm-19.967-4.16a3.4,3.4,0,1,0-2.635-4.02A3.4,3.4,0,0,0,292.3,2337.09Zm-19.968-4.17a3.392,3.392,0,1,0-2.634-4.01A3.389,3.389,0,0,0,272.329,2332.92Zm-19.968-4.16a3.4,3.4,0,1,0-2.634-4.02A3.405,3.405,0,0,0,252.361,2328.76Zm-19.968-4.17a3.392,3.392,0,1,0-2.634-4.01A3.389,3.389,0,0,0,232.393,2324.59Zm1070.927,56.06a3.255,3.255,0,1,0-4.59-.41A3.253,3.253,0,0,0,1303.32,2380.65Zm-14.99,12.54a3.255,3.255,0,1,0-4.58-.4A3.251,3.251,0,0,0,1288.33,2393.19Zm-14.98,12.55a3.255,3.255,0,1,0-4.59-.4A3.252,3.252,0,0,0,1273.35,2405.74Zm-14.98,12.55a3.255,3.255,0,1,0-4.59-.4A3.253,3.253,0,0,0,1258.37,2418.29Zm-14.99,12.55a3.255,3.255,0,1,0-4.59-.41A3.264,3.264,0,0,0,1243.38,2430.84Zm-14.98,12.54a3.251,3.251,0,1,0-4.59-.4A3.251,3.251,0,0,0,1228.4,2443.38Zm-14.98,12.55a3.258,3.258,0,1,0-4.59-.4A3.25,3.25,0,0,0,1213.42,2455.93Zm-14.99,12.55a3.255,3.255,0,1,0-4.59-.4A3.263,3.263,0,0,0,1198.43,2468.48Zm-14.98,12.55a3.255,3.255,0,1,0-4.59-.41A3.253,3.253,0,0,0,1183.45,2481.03Zm-14.99,12.55a3.255,3.255,0,1,0-4.58-.41A3.255,3.255,0,0,0,1168.46,2493.58Zm-14.98,12.54a3.255,3.255,0,1,0-4.59-.4A3.251,3.251,0,0,0,1153.48,2506.12Zm133.98-129.18a3.255,3.255,0,1,0-4.58-.4A3.243,3.243,0,0,0,1287.46,2376.94Zm-14.98,12.55a3.255,3.255,0,1,0-4.59-.4A3.264,3.264,0,0,0,1272.48,2389.49Zm-14.98,12.55a3.255,3.255,0,1,0-4.59-.41A3.253,3.253,0,0,0,1257.5,2402.04Zm-14.99,12.54a3.251,3.251,0,1,0-4.58-.4A3.242,3.242,0,0,0,1242.51,2414.58Zm-14.98,12.55a3.255,3.255,0,1,0-4.59-.4A3.252,3.252,0,0,0,1227.53,2427.13Zm-14.98,12.55a3.255,3.255,0,1,0-4.59-.4A3.253,3.253,0,0,0,1212.55,2439.68Zm-14.99,12.55a3.255,3.255,0,1,0-4.58-.41A3.264,3.264,0,0,0,1197.56,2452.23Zm-14.98,12.55a3.255,3.255,0,1,0-4.59-.41A3.264,3.264,0,0,0,1182.58,2464.78Zm-14.99,12.54a3.255,3.255,0,1,0-4.58-.4A3.242,3.242,0,0,0,1167.59,2477.32Zm-14.98,12.55a3.255,3.255,0,1,0-4.59-.4A3.252,3.252,0,0,0,1152.61,2489.87Zm-19.16,7.56a3.255,3.255,0,1,0,4.58.4A3.263,3.263,0,0,0,1133.45,2497.43Zm153.15-136.74a3.255,3.255,0,1,0-4.59-.4A3.253,3.253,0,0,0,1286.6,2360.69Zm-14.99,12.55a3.255,3.255,0,1,0-4.58-.41A3.264,3.264,0,0,0,1271.61,2373.24Zm-14.98,12.54a3.251,3.251,0,1,0-4.59-.4A3.251,3.251,0,0,0,1256.63,2385.78Zm-14.99,12.55a3.255,3.255,0,1,0-4.58-.4A3.243,3.243,0,0,0,1241.64,2398.33Zm-14.98,12.55a3.255,3.255,0,1,0-4.59-.4A3.263,3.263,0,0,0,1226.66,2410.88Zm-14.98,12.55a3.255,3.255,0,1,0-4.59-.41A3.253,3.253,0,0,0,1211.68,2423.43Zm-14.99,12.55a3.255,3.255,0,1,0-4.58-.41A3.255,3.255,0,0,0,1196.69,2435.98Zm-14.98,12.54a3.255,3.255,0,1,0-4.59-.4A3.251,3.251,0,0,0,1181.71,2448.52Zm-14.98,12.55a3.255,3.255,0,1,0-4.59-.4A3.241,3.241,0,0,0,1166.73,2461.07Zm-14.99,12.55a3.255,3.255,0,1,0-4.58-.4A3.264,3.264,0,0,0,1151.74,2473.62Zm-14.98,12.55a3.255,3.255,0,1,0-4.59-.41A3.264,3.264,0,0,0,1136.76,2486.17Zm133.98-129.18a3.255,3.255,0,1,0-4.58-.41A3.255,3.255,0,0,0,1270.74,2356.99Zm-14.98,12.54a3.255,3.255,0,1,0-4.59-.4A3.252,3.252,0,0,0,1255.76,2369.53Zm-14.98,12.55a3.255,3.255,0,1,0-4.59-.4A3.253,3.253,0,0,0,1240.78,2382.08Zm-14.99,12.55a3.255,3.255,0,1,0-4.58-.4A3.264,3.264,0,0,0,1225.79,2394.63Zm-14.98,12.55a3.255,3.255,0,1,0-4.59-.41A3.264,3.264,0,0,0,1210.81,2407.18Zm-14.98,12.54a3.258,3.258,0,1,0-4.59-.4A3.25,3.25,0,0,0,1195.83,2419.72Zm-14.99,12.55a3.255,3.255,0,1,0-4.59-.4A3.252,3.252,0,0,0,1180.84,2432.27Zm-14.98,12.55a3.255,3.255,0,1,0-4.59-.4A3.264,3.264,0,0,0,1165.86,2444.82Zm-14.99,12.55a3.255,3.255,0,1,0-4.58-.41A3.255,3.255,0,0,0,1150.87,2457.37Zm-14.98,12.54a3.251,3.251,0,1,0-4.59-.4A3.251,3.251,0,0,0,1135.89,2469.91Zm-14.98,12.55a3.255,3.255,0,1,0-4.59-.4A3.241,3.241,0,0,0,1120.91,2482.46Zm148.97-141.73a3.258,3.258,0,1,0-4.59-.4A3.25,3.25,0,0,0,1269.88,2340.73Zm-14.99,12.55a3.255,3.255,0,1,0-4.59-.4A3.263,3.263,0,0,0,1254.89,2353.28Zm-14.98,12.55a3.255,3.255,0,1,0-4.59-.41A3.253,3.253,0,0,0,1239.91,2365.83Zm-14.99,12.55a3.255,3.255,0,1,0-4.58-.41A3.255,3.255,0,0,0,1224.92,2378.38Zm-14.98,12.54a3.255,3.255,0,1,0-4.59-.4A3.251,3.251,0,0,0,1209.94,2390.92Zm-14.98,12.55a3.255,3.255,0,1,0-4.59-.4A3.241,3.241,0,0,0,1194.96,2403.47Zm-14.99,12.55a3.255,3.255,0,1,0-4.58-.4A3.264,3.264,0,0,0,1179.97,2416.02Zm-14.98,12.55a3.255,3.255,0,1,0-4.59-.41A3.264,3.264,0,0,0,1164.99,2428.57ZM1150,2441.11a3.251,3.251,0,1,0-4.58-.4A3.242,3.242,0,0,0,1150,2441.11Zm-14.98,12.55a3.255,3.255,0,1,0-4.59-.4A3.252,3.252,0,0,0,1135.02,2453.66Zm-14.98,12.55a3.255,3.255,0,1,0-4.59-.4A3.263,3.263,0,0,0,1120.04,2466.21Zm133.98-129.18a3.255,3.255,0,1,0-4.58-.41A3.264,3.264,0,0,0,1254.02,2337.03Zm-14.98,12.55a3.255,3.255,0,1,0-4.59-.41A3.264,3.264,0,0,0,1239.04,2349.58Zm-14.98,12.54a3.258,3.258,0,1,0-4.59-.4A3.25,3.25,0,0,0,1224.06,2362.12Zm-14.99,12.55a3.255,3.255,0,1,0-4.59-.4A3.252,3.252,0,0,0,1209.07,2374.67Zm-14.98,12.55a3.255,3.255,0,1,0-4.59-.4A3.253,3.253,0,0,0,1194.09,2387.22Zm-14.99,12.55a3.255,3.255,0,1,0-4.58-.41A3.255,3.255,0,0,0,1179.1,2399.77Zm-14.98,12.54a3.251,3.251,0,1,0-4.59-.4A3.251,3.251,0,0,0,1164.12,2412.31Zm-14.98,12.55a3.255,3.255,0,1,0-4.59-.4A3.241,3.241,0,0,0,1149.14,2424.86Zm-14.99,12.55a3.255,3.255,0,1,0-4.58-.4A3.263,3.263,0,0,0,1134.15,2437.41Zm-14.98,12.55a3.255,3.255,0,1,0-4.59-.41A3.264,3.264,0,0,0,1119.17,2449.96Zm-14.98,12.55a3.255,3.255,0,1,0-4.59-.41A3.253,3.253,0,0,0,1104.19,2462.51Zm148.96-141.73a3.255,3.255,0,1,0-4.58-.41A3.255,3.255,0,0,0,1253.15,2320.78Zm-14.98,12.54a3.255,3.255,0,1,0-4.59-.4A3.251,3.251,0,0,0,1238.17,2333.32Zm-14.98,12.55a3.255,3.255,0,1,0-4.59-.4A3.241,3.241,0,0,0,1223.19,2345.87Zm-14.99,12.55a3.255,3.255,0,1,0-4.58-.4A3.264,3.264,0,0,0,1208.2,2358.42Zm-14.98,12.55a3.255,3.255,0,1,0-4.59-.41A3.264,3.264,0,0,0,1193.22,2370.97Zm-14.98,12.54a3.254,3.254,0,1,0-4.59-.4A3.25,3.25,0,0,0,1178.24,2383.51Zm-14.99,12.55a3.255,3.255,0,1,0-4.59-.4A3.252,3.252,0,0,0,1163.25,2396.06Zm-14.98,12.55a3.255,3.255,0,1,0-4.59-.4A3.263,3.263,0,0,0,1148.27,2408.61Zm-14.99,12.55a3.255,3.255,0,1,0-4.58-.41A3.255,3.255,0,0,0,1133.28,2421.16Zm-14.98,12.55a3.255,3.255,0,1,0-4.59-.41A3.264,3.264,0,0,0,1118.3,2433.71Zm-14.98,12.54a3.255,3.255,0,1,0-4.59-.4A3.241,3.241,0,0,0,1103.32,2446.25Zm133.98-129.18a3.255,3.255,0,1,0-4.59-.4A3.252,3.252,0,0,0,1237.3,2317.07Zm-14.98,12.55a3.255,3.255,0,1,0-4.59-.4A3.253,3.253,0,0,0,1222.32,2329.62Zm-14.99,12.55a3.255,3.255,0,1,0-4.58-.41A3.255,3.255,0,0,0,1207.33,2342.17Zm-14.98,12.54a3.251,3.251,0,1,0-4.59-.4A3.251,3.251,0,0,0,1192.35,2354.71Zm-14.98,12.55a3.255,3.255,0,1,0-4.59-.4A3.241,3.241,0,0,0,1177.37,2367.26Zm-14.99,12.55a3.255,3.255,0,1,0-4.58-.4A3.263,3.263,0,0,0,1162.38,2379.81Zm-14.98,12.55a3.255,3.255,0,1,0-4.59-.41A3.264,3.264,0,0,0,1147.4,2392.36Zm-14.98,12.55a3.255,3.255,0,1,0-4.59-.41A3.263,3.263,0,0,0,1132.42,2404.91Zm-14.99,12.54a3.255,3.255,0,1,0-4.59-.4A3.251,3.251,0,0,0,1117.43,2417.45ZM1102.45,2430a3.255,3.255,0,1,0-4.59-.4A3.252,3.252,0,0,0,1102.45,2430Zm-14.99,12.55a3.255,3.255,0,1,0-4.58-.4A3.255,3.255,0,0,0,1087.46,2442.55ZM904.675,2221a4.529,4.529,0,1,0-1.034,6.34A4.53,4.53,0,0,0,904.675,2221Zm15.86,22.14a4.529,4.529,0,1,0-1.033,6.33A4.523,4.523,0,0,0,920.535,2243.14Zm15.861,22.13a4.529,4.529,0,1,0-1.033,6.33A4.521,4.521,0,0,0,936.4,2265.27Zm15.86,22.14a4.529,4.529,0,1,0-1.032,6.33A4.522,4.522,0,0,0,952.256,2287.41Zm15.861,22.13a4.529,4.529,0,1,0-1.033,6.33A4.52,4.52,0,0,0,968.117,2309.54Zm15.861,22.14a4.526,4.526,0,1,0-1.032,6.33A4.522,4.522,0,0,0,983.978,2331.68Zm15.861,22.13a4.529,4.529,0,1,0-1.033,6.33A4.523,4.523,0,0,0,999.839,2353.81Zm15.861,22.13a4.528,4.528,0,1,0-1.03,6.34A4.53,4.53,0,0,0,1015.7,2375.94Zm15.86,22.14a4.528,4.528,0,1,0-1.03,6.33A4.523,4.523,0,0,0,1031.56,2398.08Zm15.86,22.13a4.528,4.528,0,1,0-1.03,6.34A4.53,4.53,0,0,0,1047.42,2420.21Zm15.86,22.14a4.528,4.528,0,1,0-1.03,6.33A4.523,4.523,0,0,0,1063.28,2442.35ZM897.9,2242.65a4.529,4.529,0,1,0-1.032,6.33A4.522,4.522,0,0,0,897.9,2242.65Zm15.861,22.13a4.529,4.529,0,1,0-1.033,6.34A4.521,4.521,0,0,0,913.76,2264.78Zm15.861,22.14a4.526,4.526,0,1,0-1.033,6.33A4.523,4.523,0,0,0,929.621,2286.92Zm15.861,22.13a4.529,4.529,0,1,0-1.034,6.33A4.521,4.521,0,0,0,945.482,2309.05Zm15.86,22.14a4.526,4.526,0,1,0-1.033,6.33A4.523,4.523,0,0,0,961.342,2331.19Zm15.861,22.13a4.529,4.529,0,1,0-1.033,6.33A4.523,4.523,0,0,0,977.2,2353.32Zm15.861,22.13a4.529,4.529,0,1,0-1.033,6.34A4.53,4.53,0,0,0,993.064,2375.45Zm15.856,22.14a4.528,4.528,0,1,0-1.03,6.33A4.511,4.511,0,0,0,1008.92,2397.59Zm15.87,22.13a4.532,4.532,0,1,0-1.04,6.34A4.53,4.53,0,0,0,1024.79,2419.72Zm15.86,22.14a4.532,4.532,0,1,0-1.04,6.33A4.523,4.523,0,0,0,1040.65,2441.86Zm8.5,27.42a4.532,4.532,0,1,0,1.04-6.33A4.523,4.523,0,0,0,1049.15,2469.28ZM875.263,2242.16a4.529,4.529,0,1,0-1.033,6.33A4.523,4.523,0,0,0,875.263,2242.16Zm15.86,22.13a4.528,4.528,0,1,0-1.032,6.34A4.52,4.52,0,0,0,891.123,2264.29Zm15.862,22.14a4.529,4.529,0,1,0-1.033,6.33A4.523,4.523,0,0,0,906.985,2286.43Zm15.861,22.13a4.529,4.529,0,1,0-1.033,6.33A4.521,4.521,0,0,0,922.846,2308.56Zm15.86,22.14a4.526,4.526,0,1,0-1.033,6.33A4.523,4.523,0,0,0,938.706,2330.7Zm15.862,22.13a4.53,4.53,0,1,0-1.034,6.33A4.514,4.514,0,0,0,954.568,2352.83Zm15.86,22.13a4.529,4.529,0,1,0-1.034,6.34A4.53,4.53,0,0,0,970.428,2374.96Zm15.86,22.14a4.529,4.529,0,1,0-1.032,6.33A4.522,4.522,0,0,0,986.288,2397.1Zm15.862,22.13a4.529,4.529,0,1,0-1.03,6.34A4.531,4.531,0,0,0,1002.15,2419.23Zm15.86,22.14a4.528,4.528,0,1,0-1.03,6.33A4.523,4.523,0,0,0,1018.01,2441.37Zm15.86,22.13a4.528,4.528,0,1,0-1.03,6.33A4.521,4.521,0,0,0,1033.87,2463.5ZM868.488,2263.8a4.529,4.529,0,1,0-1.033,6.34A4.521,4.521,0,0,0,868.488,2263.8Zm15.861,22.14a4.53,4.53,0,1,0-1.034,6.33A4.524,4.524,0,0,0,884.349,2285.94Zm15.86,22.13a4.529,4.529,0,1,0-1.032,6.33A4.52,4.52,0,0,0,900.209,2308.07Zm15.861,22.14a4.526,4.526,0,1,0-1.033,6.33A4.523,4.523,0,0,0,916.07,2330.21Zm15.861,22.13a4.529,4.529,0,1,0-1.033,6.33A4.523,4.523,0,0,0,931.931,2352.34Zm15.861,22.13a4.529,4.529,0,1,0-1.033,6.34A4.53,4.53,0,0,0,947.792,2374.47Zm15.861,22.14a4.53,4.53,0,1,0-1.033,6.33A4.523,4.523,0,0,0,963.653,2396.61Zm15.86,22.13a4.529,4.529,0,1,0-1.033,6.34A4.53,4.53,0,0,0,979.513,2418.74Zm15.861,22.14a4.529,4.529,0,1,0-1.033,6.33A4.523,4.523,0,0,0,995.374,2440.88Zm15.856,22.13a4.528,4.528,0,1,0-1.03,6.34A4.508,4.508,0,0,0,1011.23,2463.01Zm15.86,22.14a4.525,4.525,0,1,0-1.03,6.33A4.51,4.51,0,0,0,1027.09,2485.15ZM845.852,2263.31a4.529,4.529,0,1,0-1.033,6.34A4.53,4.53,0,0,0,845.852,2263.31Zm15.861,22.14a4.529,4.529,0,1,0-1.033,6.33A4.523,4.523,0,0,0,861.713,2285.45Zm15.861,22.13a4.529,4.529,0,1,0-1.033,6.34A4.521,4.521,0,0,0,877.574,2307.58Zm15.86,22.14a4.526,4.526,0,1,0-1.033,6.33A4.523,4.523,0,0,0,893.434,2329.72Zm15.861,22.13a4.529,4.529,0,1,0-1.032,6.33A4.512,4.512,0,0,0,909.3,2351.85Zm15.861,22.13a4.529,4.529,0,1,0-1.033,6.34A4.53,4.53,0,0,0,925.156,2373.98Zm15.861,22.14a4.529,4.529,0,1,0-1.033,6.33A4.524,4.524,0,0,0,941.017,2396.12Zm15.86,22.13a4.529,4.529,0,1,0-1.033,6.34A4.529,4.529,0,0,0,956.877,2418.25Zm15.861,22.14a4.529,4.529,0,1,0-1.033,6.33A4.523,4.523,0,0,0,972.738,2440.39Zm15.861,22.13a4.529,4.529,0,1,0-1.033,6.34A4.521,4.521,0,0,0,988.6,2462.52Zm15.861,22.14a4.529,4.529,0,1,0-1.03,6.33A4.523,4.523,0,0,0,1004.46,2484.66Zm-165.383-199.7a4.529,4.529,0,1,0-1.033,6.33A4.523,4.523,0,0,0,839.077,2284.96Zm15.86,22.13a4.529,4.529,0,1,0-1.032,6.34A4.521,4.521,0,0,0,854.937,2307.09Zm15.861,22.14a4.526,4.526,0,1,0-1.033,6.33A4.522,4.522,0,0,0,870.8,2329.23Zm15.861,22.13a4.529,4.529,0,1,0-1.033,6.33A4.52,4.52,0,0,0,886.659,2351.36Zm15.861,22.13a4.529,4.529,0,1,0-1.033,6.34A4.53,4.53,0,0,0,902.52,2373.49Zm15.861,22.14a4.529,4.529,0,1,0-1.033,6.33A4.523,4.523,0,0,0,918.381,2395.63Zm15.86,22.13a4.529,4.529,0,1,0-1.033,6.34A4.53,4.53,0,0,0,934.241,2417.76ZM950.1,2439.9a4.529,4.529,0,1,0-1.033,6.33A4.523,4.523,0,0,0,950.1,2439.9Zm15.861,22.13a4.529,4.529,0,1,0-1.033,6.34A4.521,4.521,0,0,0,965.963,2462.03Zm15.86,22.14a4.529,4.529,0,1,0-1.033,6.33A4.522,4.522,0,0,0,981.823,2484.17Zm15.861,22.13a4.529,4.529,0,1,0-1.032,6.33A4.52,4.52,0,0,0,997.684,2506.3ZM816.441,2284.47a4.529,4.529,0,1,0-1.033,6.33A4.523,4.523,0,0,0,816.441,2284.47ZM832.3,2306.6a4.529,4.529,0,1,0-1.033,6.34A4.521,4.521,0,0,0,832.3,2306.6Zm15.86,22.14a4.529,4.529,0,1,0-1.033,6.33A4.523,4.523,0,0,0,848.162,2328.74Zm15.861,22.13a4.529,4.529,0,1,0-1.033,6.33A4.521,4.521,0,0,0,864.023,2350.87Zm15.861,22.14a4.526,4.526,0,1,0-1.033,6.33A4.523,4.523,0,0,0,879.884,2373.01Zm15.861,22.13a4.529,4.529,0,1,0-1.033,6.33A4.512,4.512,0,0,0,895.745,2395.14Zm15.86,22.13a4.529,4.529,0,1,0-1.032,6.34A4.529,4.529,0,0,0,911.605,2417.27Zm15.861,22.14a4.529,4.529,0,1,0-1.033,6.33A4.523,4.523,0,0,0,927.466,2439.41Zm15.861,22.13a4.529,4.529,0,1,0-1.033,6.34A4.53,4.53,0,0,0,943.327,2461.54Zm15.861,22.14a4.529,4.529,0,1,0-1.034,6.33A4.524,4.524,0,0,0,959.188,2483.68Zm15.86,22.13a4.529,4.529,0,1,0-1.033,6.34A4.52,4.52,0,0,0,975.048,2505.81Zm-165.382-199.7a4.529,4.529,0,1,0-1.033,6.34A4.53,4.53,0,0,0,809.666,2306.11Zm15.86,22.14a4.529,4.529,0,1,0-1.032,6.33A4.523,4.523,0,0,0,825.526,2328.25Zm15.861,22.13a4.529,4.529,0,1,0-1.033,6.33A4.52,4.52,0,0,0,841.387,2350.38Zm15.861,22.14a4.526,4.526,0,1,0-1.033,6.33A4.523,4.523,0,0,0,857.248,2372.52Zm15.861,22.13a4.529,4.529,0,1,0-1.034,6.33A4.513,4.513,0,0,0,873.109,2394.65Zm15.86,22.13a4.529,4.529,0,1,0-1.033,6.34A4.529,4.529,0,0,0,888.969,2416.78Zm15.861,22.14a4.529,4.529,0,1,0-1.033,6.33A4.523,4.523,0,0,0,904.83,2438.92Zm15.861,22.13a4.529,4.529,0,1,0-1.033,6.34A4.53,4.53,0,0,0,920.691,2461.05Zm15.861,22.14a4.529,4.529,0,1,0-1.033,6.33A4.523,4.523,0,0,0,936.552,2483.19Zm15.86,22.13a4.529,4.529,0,1,0-1.033,6.34A4.52,4.52,0,0,0,952.412,2505.32Zm15.861,22.14a4.529,4.529,0,1,0-1.033,6.33A4.523,4.523,0,0,0,968.273,2527.46Zm-135.362-89.41a5.243,5.243,0,1,0-7.374-.83A5.245,5.245,0,0,0,832.911,2438.05Zm-24.636,19.62a5.247,5.247,0,1,0-7.374-.83A5.244,5.244,0,0,0,808.275,2457.67Zm-24.636,19.62a5.247,5.247,0,1,0-7.373-.84A5.256,5.256,0,0,0,783.639,2477.29ZM759,2496.9a5.243,5.243,0,1,0-7.374-.83A5.242,5.242,0,0,0,759,2496.9Zm-24.635,19.62a5.243,5.243,0,1,0-7.374-.83A5.243,5.243,0,0,0,734.369,2516.52Zm-24.636,19.62a5.243,5.243,0,1,0-7.374-.83A5.243,5.243,0,0,0,709.733,2536.14ZM685.1,2555.76a5.243,5.243,0,1,0-7.374-.83A5.245,5.245,0,0,0,685.1,2555.76Zm-24.636,19.62a5.243,5.243,0,1,0-7.374-.83A5.244,5.244,0,0,0,660.462,2575.38ZM635.827,2595a5.247,5.247,0,1,0-7.374-.84A5.244,5.244,0,0,0,635.827,2595Zm-24.635,19.62a5.247,5.247,0,1,0-7.375-.84A5.256,5.256,0,0,0,611.192,2614.62Zm-24.636,19.61a5.243,5.243,0,1,0-7.374-.83A5.241,5.241,0,0,0,586.556,2634.23Zm220.965-202.78a5.243,5.243,0,1,0-7.374-.83A5.242,5.242,0,0,0,807.521,2431.45Zm-24.636,19.62a5.243,5.243,0,1,0-7.373-.83A5.244,5.244,0,0,0,782.885,2451.07Zm-24.635,19.62a5.243,5.243,0,1,0-7.374-.83A5.245,5.245,0,0,0,758.25,2470.69Zm-24.635,19.62a5.247,5.247,0,1,0-7.375-.83A5.246,5.246,0,0,0,733.615,2490.31Zm-24.636,19.62a5.247,5.247,0,1,0-7.374-.84A5.255,5.255,0,0,0,708.979,2509.93Zm-24.636,19.61a5.243,5.243,0,1,0-7.373-.83A5.241,5.241,0,0,0,684.343,2529.54Zm-24.635,19.62a5.243,5.243,0,1,0-7.374-.83A5.243,5.243,0,0,0,659.708,2549.16Zm-24.636,19.62a5.243,5.243,0,1,0-7.374-.83A5.243,5.243,0,0,0,635.072,2568.78Zm-24.635,19.62a5.243,5.243,0,1,0-7.374-.83A5.244,5.244,0,0,0,610.437,2588.4ZM585.8,2608.02a5.243,5.243,0,1,0-7.374-.83A5.246,5.246,0,0,0,585.8,2608.02Zm-31.172,11.41a5.247,5.247,0,1,0,7.374.84A5.256,5.256,0,0,0,554.63,2619.43Zm252.137-214.19a5.247,5.247,0,1,0-7.374-.84A5.246,5.246,0,0,0,806.767,2405.24Zm-24.636,19.62a5.247,5.247,0,1,0-7.374-.84A5.256,5.256,0,0,0,782.131,2424.86ZM757.5,2444.47a5.243,5.243,0,1,0-7.374-.83A5.243,5.243,0,0,0,757.5,2444.47Zm-24.636,19.62a5.243,5.243,0,1,0-7.373-.83A5.242,5.242,0,0,0,732.86,2464.09Zm-24.635,19.62a5.243,5.243,0,1,0-7.374-.83A5.246,5.246,0,0,0,708.225,2483.71Zm-24.636,19.62a5.243,5.243,0,1,0-7.373-.83A5.243,5.243,0,0,0,683.589,2503.33Zm-24.635,19.62a5.247,5.247,0,1,0-7.374-.83A5.245,5.245,0,0,0,658.954,2522.95Zm-24.635,19.62a5.247,5.247,0,1,0-7.375-.84A5.245,5.245,0,0,0,634.319,2542.57Zm-24.636,19.61a5.243,5.243,0,1,0-7.374-.83A5.242,5.242,0,0,0,609.683,2562.18Zm-24.636,19.62a5.243,5.243,0,1,0-7.373-.83A5.242,5.242,0,0,0,585.047,2581.8Zm-24.635,19.62a5.243,5.243,0,1,0-7.374-.83A5.241,5.241,0,0,0,560.412,2601.42Zm220.965-202.78a5.243,5.243,0,1,0-7.374-.83A5.244,5.244,0,0,0,781.377,2398.64Zm-24.635,19.62a5.243,5.243,0,1,0-7.374-.83A5.246,5.246,0,0,0,756.742,2418.26Zm-24.636,19.62a5.247,5.247,0,1,0-7.374-.83A5.244,5.244,0,0,0,732.106,2437.88ZM707.47,2457.5a5.247,5.247,0,1,0-7.373-.84A5.255,5.255,0,0,0,707.47,2457.5Zm-24.635,19.61a5.243,5.243,0,1,0-7.373-.83A5.243,5.243,0,0,0,682.835,2477.11ZM658.2,2496.73a5.243,5.243,0,1,0-7.374-.83A5.243,5.243,0,0,0,658.2,2496.73Zm-24.636,19.62a5.243,5.243,0,1,0-7.374-.83A5.243,5.243,0,0,0,633.564,2516.35Zm-24.636,19.62a5.243,5.243,0,1,0-7.373-.83A5.245,5.245,0,0,0,608.928,2535.97Zm-24.635,19.62a5.247,5.247,0,1,0-7.374-.83A5.244,5.244,0,0,0,584.293,2555.59Zm-24.635,19.62a5.247,5.247,0,1,0-7.374-.84A5.256,5.256,0,0,0,559.658,2575.21Zm-24.636,19.61a5.243,5.243,0,1,0-7.373-.83A5.242,5.242,0,0,0,535.022,2594.82Zm245.6-222.4a5.243,5.243,0,1,0-7.374-.83A5.241,5.241,0,0,0,780.623,2372.42Zm-24.636,19.62a5.243,5.243,0,1,0-7.374-.83A5.243,5.243,0,0,0,755.987,2392.04Zm-24.635,19.62a5.243,5.243,0,1,0-7.374-.83A5.243,5.243,0,0,0,731.352,2411.66Zm-24.635,19.62a5.243,5.243,0,1,0-7.374-.83A5.245,5.245,0,0,0,706.717,2431.28Zm-24.636,19.62a5.243,5.243,0,1,0-7.375-.83A5.245,5.245,0,0,0,682.081,2450.9Zm-24.636,19.62a5.247,5.247,0,1,0-7.373-.83A5.244,5.244,0,0,0,657.445,2470.52Zm-24.635,19.62a5.247,5.247,0,1,0-7.374-.84A5.256,5.256,0,0,0,632.81,2490.14Zm-24.635,19.61a5.243,5.243,0,1,0-7.375-.83A5.243,5.243,0,0,0,608.175,2509.75Zm-24.636,19.62a5.243,5.243,0,1,0-7.374-.83A5.242,5.242,0,0,0,583.539,2529.37ZM558.9,2548.99a5.243,5.243,0,1,0-7.373-.83A5.244,5.244,0,0,0,558.9,2548.99Zm-24.635,19.62a5.243,5.243,0,1,0-7.374-.83A5.244,5.244,0,0,0,534.268,2568.61Zm220.965-202.78a5.247,5.247,0,1,0-7.374-.83A5.244,5.244,0,0,0,755.233,2365.83ZM730.6,2385.45a5.247,5.247,0,1,0-7.374-.84A5.257,5.257,0,0,0,730.6,2385.45Zm-24.636,19.62a5.247,5.247,0,1,0-7.374-.84A5.255,5.255,0,0,0,705.962,2405.07Zm-24.635,19.61a5.243,5.243,0,1,0-7.374-.83A5.242,5.242,0,0,0,681.327,2424.68Zm-24.636,19.62a5.243,5.243,0,1,0-7.374-.83A5.242,5.242,0,0,0,656.691,2444.3Zm-24.635,19.62a5.243,5.243,0,1,0-7.374-.83A5.245,5.245,0,0,0,632.056,2463.92Zm-24.635,19.62a5.243,5.243,0,1,0-7.374-.83A5.245,5.245,0,0,0,607.421,2483.54Zm-24.636,19.62a5.247,5.247,0,1,0-7.374-.83A5.244,5.244,0,0,0,582.785,2503.16Zm-24.636,19.62a5.247,5.247,0,1,0-7.374-.84A5.257,5.257,0,0,0,558.149,2522.78Zm-24.635,19.61a5.243,5.243,0,1,0-7.374-.83A5.242,5.242,0,0,0,533.514,2542.39Zm-24.636,19.62a5.243,5.243,0,1,0-7.373-.83A5.242,5.242,0,0,0,508.878,2562.01Zm245.6-222.4a5.243,5.243,0,1,0-7.374-.83A5.242,5.242,0,0,0,754.479,2339.61Zm-24.636,19.62a5.243,5.243,0,1,0-7.374-.83A5.242,5.242,0,0,0,729.843,2359.23Zm-24.635,19.62a5.243,5.243,0,1,0-7.374-.83A5.245,5.245,0,0,0,705.208,2378.85Zm-24.635,19.62a5.247,5.247,0,1,0-7.374-.83A5.246,5.246,0,0,0,680.573,2398.47Zm-24.636,19.62a5.247,5.247,0,1,0-7.374-.84A5.244,5.244,0,0,0,655.937,2418.09ZM631.3,2437.7a5.243,5.243,0,1,0-7.373-.83A5.241,5.241,0,0,0,631.3,2437.7Zm-24.634,19.62a5.243,5.243,0,1,0-7.375-.83A5.243,5.243,0,0,0,606.667,2457.32Zm-24.636,19.62a5.243,5.243,0,1,0-7.374-.83A5.243,5.243,0,0,0,582.031,2476.94ZM557.4,2496.56a5.243,5.243,0,1,0-7.374-.83A5.244,5.244,0,0,0,557.4,2496.56Zm-24.635,19.62a5.243,5.243,0,1,0-7.374-.83A5.246,5.246,0,0,0,532.76,2516.18Zm-24.636,19.62a5.247,5.247,0,1,0-7.374-.83A5.244,5.244,0,0,0,508.124,2535.8ZM729.09,2333.02a5.247,5.247,0,1,0-7.375-.84A5.257,5.257,0,0,0,729.09,2333.02Zm-24.636,19.61a5.243,5.243,0,1,0-7.374-.83A5.243,5.243,0,0,0,704.454,2352.63Zm-24.636,19.62a5.243,5.243,0,1,0-7.373-.83A5.242,5.242,0,0,0,679.818,2372.25Zm-24.635,19.62a5.243,5.243,0,1,0-7.374-.83A5.245,5.245,0,0,0,655.183,2391.87Zm-24.636,19.62a5.243,5.243,0,1,0-7.374-.83A5.244,5.244,0,0,0,630.547,2411.49Zm-24.636,19.62a5.243,5.243,0,1,0-7.373-.83A5.243,5.243,0,0,0,605.911,2431.11Zm-24.634,19.62a5.247,5.247,0,1,0-7.374-.84A5.256,5.256,0,0,0,581.277,2450.73Zm-24.636,19.61a5.243,5.243,0,1,0-7.374-.83A5.243,5.243,0,0,0,556.641,2470.34Zm-24.636,19.62a5.243,5.243,0,1,0-7.374-.83A5.242,5.242,0,0,0,532.005,2489.96Zm-24.635,19.62a5.243,5.243,0,1,0-7.374-.83A5.243,5.243,0,0,0,507.37,2509.58Zm-24.635,19.62a5.243,5.243,0,1,0-7.375-.83A5.246,5.246,0,0,0,482.735,2529.2ZM632.5,2257.05a4.882,4.882,0,1,0-6.809,1.16A4.884,4.884,0,0,0,632.5,2257.05Zm-16.966,23.91a4.882,4.882,0,1,0-6.809,1.16A4.884,4.884,0,0,0,615.532,2280.96Zm-16.965,23.91a4.882,4.882,0,1,0-6.81,1.16A4.884,4.884,0,0,0,598.567,2304.87Zm-16.966,23.9a4.879,4.879,0,1,0-6.81,1.17A4.873,4.873,0,0,0,581.6,2328.77Zm-16.966,23.91a4.882,4.882,0,1,0-6.81,1.16A4.884,4.884,0,0,0,564.635,2352.68Zm-16.966,23.91a4.882,4.882,0,1,0-6.809,1.16A4.884,4.884,0,0,0,547.669,2376.59ZM530.7,2400.5a4.882,4.882,0,1,0-6.81,1.16A4.884,4.884,0,0,0,530.7,2400.5Zm-16.966,23.9a4.879,4.879,0,1,0-6.809,1.16A4.872,4.872,0,0,0,513.737,2424.4Zm-16.965,23.91a4.882,4.882,0,1,0-6.81,1.16A4.884,4.884,0,0,0,496.772,2448.31Zm-16.966,23.91a4.882,4.882,0,1,0-6.811,1.16A4.884,4.884,0,0,0,479.806,2472.22Zm-16.966,23.91a4.882,4.882,0,1,0-6.81,1.16A4.885,4.885,0,0,0,462.84,2496.13Zm145.248-238.42a4.882,4.882,0,1,0-6.81,1.16A4.884,4.884,0,0,0,608.088,2257.71Zm-16.966,23.91a4.882,4.882,0,1,0-6.81,1.16A4.885,4.885,0,0,0,591.122,2281.62Zm-16.966,23.9a4.879,4.879,0,1,0-6.809,1.16A4.872,4.872,0,0,0,574.156,2305.52Zm-16.966,23.91a4.882,4.882,0,1,0-6.809,1.16A4.884,4.884,0,0,0,557.19,2329.43Zm-16.966,23.91a4.882,4.882,0,1,0-6.809,1.16A4.884,4.884,0,0,0,540.224,2353.34Zm-16.965,23.91a4.882,4.882,0,1,0-6.81,1.16A4.884,4.884,0,0,0,523.259,2377.25Zm-16.966,23.9a4.879,4.879,0,1,0-6.81,1.16A4.885,4.885,0,0,0,506.293,2401.15Zm-16.966,23.91a4.882,4.882,0,1,0-6.81,1.16A4.884,4.884,0,0,0,489.327,2425.06Zm-16.966,23.91a4.882,4.882,0,1,0-6.809,1.16A4.884,4.884,0,0,0,472.361,2448.97ZM455.4,2472.88a4.882,4.882,0,1,0-6.809,1.16A4.884,4.884,0,0,0,455.4,2472.88Zm-24.929,18.26a4.879,4.879,0,1,0,6.809-1.17A4.872,4.872,0,0,0,430.466,2491.14Zm170.177-256.68a4.882,4.882,0,1,0-6.809,1.16A4.884,4.884,0,0,0,600.643,2234.46Zm-16.965,23.91a4.882,4.882,0,1,0-6.81,1.16A4.885,4.885,0,0,0,583.678,2258.37Zm-16.967,23.9a4.879,4.879,0,1,0-6.808,1.16A4.884,4.884,0,0,0,566.711,2282.27Zm-16.965,23.91a4.882,4.882,0,1,0-6.81,1.16A4.885,4.885,0,0,0,549.746,2306.18Zm-16.966,23.91a4.882,4.882,0,1,0-6.81,1.16A4.885,4.885,0,0,0,532.78,2330.09ZM515.814,2354a4.882,4.882,0,1,0-6.809,1.16A4.884,4.884,0,0,0,515.814,2354Zm-16.966,23.9a4.879,4.879,0,1,0-6.809,1.16A4.884,4.884,0,0,0,498.848,2377.9Zm-16.966,23.91a4.882,4.882,0,1,0-6.81,1.16A4.884,4.884,0,0,0,481.882,2401.81Zm-16.965,23.91a4.882,4.882,0,1,0-6.81,1.16A4.885,4.885,0,0,0,464.917,2425.72Zm-16.966,23.91a4.882,4.882,0,1,0-6.81,1.16A4.884,4.884,0,0,0,447.951,2449.63Zm-16.966,23.9a4.882,4.882,0,1,0-6.809,1.16A4.885,4.885,0,0,0,430.985,2473.53Zm145.248-238.41a4.882,4.882,0,1,0-6.81,1.16A4.884,4.884,0,0,0,576.233,2235.12Zm-16.966,23.9a4.879,4.879,0,1,0-6.809,1.16A4.884,4.884,0,0,0,559.267,2259.02ZM542.3,2282.93a4.882,4.882,0,1,0-6.809,1.16A4.884,4.884,0,0,0,542.3,2282.93Zm-16.966,23.91a4.882,4.882,0,1,0-6.809,1.16A4.884,4.884,0,0,0,525.335,2306.84Zm-16.965,23.91a4.882,4.882,0,1,0-6.81,1.16A4.885,4.885,0,0,0,508.37,2330.75Zm-16.966,23.9a4.882,4.882,0,1,0-6.81,1.16A4.884,4.884,0,0,0,491.4,2354.65Zm-16.966,23.91a4.882,4.882,0,1,0-6.809,1.16A4.884,4.884,0,0,0,474.438,2378.56Zm-16.966,23.91a4.882,4.882,0,1,0-6.809,1.16A4.884,4.884,0,0,0,457.472,2402.47Zm-16.966,23.91a4.882,4.882,0,1,0-6.809,1.16A4.882,4.882,0,0,0,440.506,2426.38Zm-16.966,23.9a4.882,4.882,0,1,0-6.809,1.16A4.884,4.884,0,0,0,423.54,2450.28Zm-16.965,23.91a4.883,4.883,0,1,0-6.81,1.16A4.885,4.885,0,0,0,406.575,2474.19Zm162.213-262.32a4.882,4.882,0,1,0-6.809,1.16A4.882,4.882,0,0,0,568.788,2211.87Zm-16.966,23.9a4.882,4.882,0,1,0-6.809,1.16A4.883,4.883,0,0,0,551.822,2235.77Zm-16.965,23.91a4.882,4.882,0,1,0-6.81,1.16A4.883,4.883,0,0,0,534.857,2259.68Zm-16.966,23.91a4.882,4.882,0,1,0-6.81,1.16A4.885,4.885,0,0,0,517.891,2283.59Zm-16.966,23.91a4.882,4.882,0,1,0-6.81,1.16A4.882,4.882,0,0,0,500.925,2307.5Zm-16.966,23.9a4.882,4.882,0,1,0-6.809,1.16A4.884,4.884,0,0,0,483.959,2331.4Zm-16.966,23.91a4.882,4.882,0,1,0-6.809,1.16A4.884,4.884,0,0,0,466.993,2355.31Zm-16.966,23.91a4.882,4.882,0,1,0-6.809,1.16A4.883,4.883,0,0,0,450.027,2379.22Zm-16.965,23.9a4.879,4.879,0,1,0-6.81,1.17A4.872,4.872,0,0,0,433.062,2403.12ZM416.1,2427.03a4.882,4.882,0,1,0-6.81,1.16A4.883,4.883,0,0,0,416.1,2427.03Zm-16.966,23.91a4.882,4.882,0,1,0-6.809,1.16A4.884,4.884,0,0,0,399.13,2450.94Zm145.248-238.42a4.882,4.882,0,1,0-6.81,1.16A4.884,4.884,0,0,0,544.378,2212.52Zm-16.966,23.91a4.882,4.882,0,1,0-6.809,1.16A4.884,4.884,0,0,0,527.412,2236.43Zm-16.965,23.91a4.883,4.883,0,1,0-6.81,1.16A4.885,4.885,0,0,0,510.447,2260.34Zm-16.967,23.9a4.879,4.879,0,1,0-6.809,1.17A4.872,4.872,0,0,0,493.48,2284.24Zm-16.966,23.91a4.882,4.882,0,1,0-6.809,1.16A4.882,4.882,0,0,0,476.514,2308.15Zm-16.965,23.91a4.882,4.882,0,1,0-6.81,1.16A4.885,4.885,0,0,0,459.549,2332.06Zm-16.966,23.91a4.882,4.882,0,1,0-6.809,1.16A4.885,4.885,0,0,0,442.583,2355.97Zm-16.966,23.9a4.879,4.879,0,1,0-6.809,1.16A4.872,4.872,0,0,0,425.617,2379.87Zm-16.966,23.91a4.882,4.882,0,1,0-6.809,1.16A4.884,4.884,0,0,0,408.651,2403.78Zm-16.966,23.91a4.882,4.882,0,1,0-6.809,1.16A4.883,4.883,0,0,0,391.685,2427.69ZM374.72,2451.6a4.882,4.882,0,1,0-6.81,1.16A4.885,4.885,0,0,0,374.72,2451.6Zm162.214-262.33a4.882,4.882,0,1,0-6.81,1.16A4.884,4.884,0,0,0,536.934,2189.27Zm-16.966,23.91a4.882,4.882,0,1,0-6.81,1.16A4.885,4.885,0,0,0,519.968,2213.18ZM503,2237.09a4.882,4.882,0,1,0-6.81,1.16A4.884,4.884,0,0,0,503,2237.09Zm-16.966,23.9a4.879,4.879,0,1,0-6.81,1.16A4.872,4.872,0,0,0,486.036,2260.99ZM469.07,2284.9a4.882,4.882,0,1,0-6.809,1.16A4.884,4.884,0,0,0,469.07,2284.9ZM452.1,2308.81a4.882,4.882,0,1,0-6.809,1.16A4.884,4.884,0,0,0,452.1,2308.81Zm-16.966,23.91a4.882,4.882,0,1,0-6.809,1.16A4.884,4.884,0,0,0,435.138,2332.72Zm-16.966,23.9a4.879,4.879,0,1,0-6.809,1.16A4.87,4.87,0,0,0,418.172,2356.62Zm-16.965,23.91a4.882,4.882,0,1,0-6.81,1.16A4.885,4.885,0,0,0,401.207,2380.53Zm-16.966,23.91a4.882,4.882,0,1,0-6.809,1.16A4.885,4.885,0,0,0,384.241,2404.44Zm-16.966,23.91a4.882,4.882,0,1,0-6.809,1.16A4.884,4.884,0,0,0,367.275,2428.35Zm145.249-238.42a4.882,4.882,0,1,0-6.81,1.16A4.885,4.885,0,0,0,512.524,2189.93Zm-16.967,23.91a4.882,4.882,0,1,0-6.809,1.16A4.884,4.884,0,0,0,495.557,2213.84Zm-16.966,23.9a4.879,4.879,0,1,0-6.809,1.16A4.871,4.871,0,0,0,478.591,2237.74Zm-16.965,23.91a4.882,4.882,0,1,0-6.81,1.16A4.885,4.885,0,0,0,461.626,2261.65Zm-16.966,23.91a4.882,4.882,0,1,0-6.81,1.16A4.885,4.885,0,0,0,444.66,2285.56Zm-16.966,23.91a4.882,4.882,0,1,0-6.809,1.16A4.884,4.884,0,0,0,427.694,2309.47Zm-16.966,23.9a4.879,4.879,0,1,0-6.809,1.16A4.884,4.884,0,0,0,410.728,2333.37Zm-16.966,23.91a4.882,4.882,0,1,0-6.809,1.16A4.884,4.884,0,0,0,393.762,2357.28ZM376.8,2381.19a4.882,4.882,0,1,0-6.809,1.16A4.884,4.884,0,0,0,376.8,2381.19ZM359.83,2405.1a4.882,4.882,0,1,0-6.809,1.16A4.883,4.883,0,0,0,359.83,2405.1ZM342.865,2429a4.879,4.879,0,1,0-6.81,1.16A4.885,4.885,0,0,0,342.865,2429ZM116.528,2194.61a7.306,7.306,0,1,0-.458,10.32A7.3,7.3,0,0,0,116.528,2194.61Zm29.6,32.38a7.306,7.306,0,1,0-.457,10.33A7.31,7.31,0,0,0,146.129,2226.99Zm29.6,32.39a7.306,7.306,0,1,0-.458,10.32A7.311,7.311,0,0,0,175.731,2259.38Zm29.6,32.38a7.306,7.306,0,1,0-.458,10.33A7.311,7.311,0,0,0,205.332,2291.76Zm29.6,32.39a7.306,7.306,0,1,0-.459,10.32A7.312,7.312,0,0,0,234.934,2324.15Zm29.6,32.38a7.306,7.306,0,1,0-.458,10.33A7.311,7.311,0,0,0,264.535,2356.53Zm29.6,32.39a7.306,7.306,0,1,0-.457,10.33A7.311,7.311,0,0,0,294.136,2388.92Zm29.6,32.38a7.306,7.306,0,1,0-.458,10.33A7.3,7.3,0,0,0,323.738,2421.3Zm29.6,32.39a7.306,7.306,0,1,0-.458,10.33A7.312,7.312,0,0,0,353.34,2453.69Zm29.6,32.38a7.306,7.306,0,1,0-.458,10.33A7.3,7.3,0,0,0,382.941,2486.07Zm29.6,32.39a7.306,7.306,0,1,0-.458,10.33A7.311,7.311,0,0,0,412.542,2518.46Zm-302.78-287.94a7.306,7.306,0,1,0-.458,10.33A7.311,7.311,0,0,0,109.762,2230.52Zm29.6,32.39a7.306,7.306,0,1,0-.458,10.32A7.311,7.311,0,0,0,139.364,2262.91Zm29.6,32.38a7.306,7.306,0,1,0-.458,10.33A7.311,7.311,0,0,0,168.965,2295.29Zm29.6,32.39a7.306,7.306,0,1,0-.459,10.33A7.311,7.311,0,0,0,198.567,2327.68Zm29.6,32.38a7.306,7.306,0,1,0-.458,10.33A7.3,7.3,0,0,0,228.168,2360.06Zm29.6,32.39a7.306,7.306,0,1,0-.457,10.33A7.31,7.31,0,0,0,257.769,2392.45Zm29.6,32.38a7.306,7.306,0,1,0-.458,10.33A7.3,7.3,0,0,0,287.371,2424.83Zm29.6,32.39a7.306,7.306,0,1,0-.458,10.33A7.311,7.311,0,0,0,316.972,2457.22Zm29.6,32.38a7.306,7.306,0,1,0-.458,10.33A7.3,7.3,0,0,0,346.574,2489.6Zm29.6,32.39a7.306,7.306,0,1,0-.458,10.33A7.311,7.311,0,0,0,376.175,2521.99Zm18.819,42.24a7.306,7.306,0,1,0,.457-10.32A7.3,7.3,0,0,0,394.994,2564.23Zm-321.6-330.18a7.306,7.306,0,1,0-.458,10.33A7.31,7.31,0,0,0,73.395,2234.05Zm29.6,32.39a7.306,7.306,0,1,0-.457,10.32A7.31,7.31,0,0,0,103,2266.44Zm29.6,32.38a7.306,7.306,0,1,0-.458,10.33A7.311,7.311,0,0,0,132.6,2298.82Zm29.6,32.39a7.306,7.306,0,1,0-.459,10.33A7.312,7.312,0,0,0,162.2,2331.21Zm29.6,32.38a7.306,7.306,0,1,0-.458,10.33A7.3,7.3,0,0,0,191.8,2363.59Zm29.6,32.39a7.306,7.306,0,1,0-.458,10.33A7.311,7.311,0,0,0,221.4,2395.98Zm29.6,32.38a7.306,7.306,0,1,0-.458,10.33A7.3,7.3,0,0,0,251,2428.36Zm29.6,32.39a7.306,7.306,0,1,0-.459,10.33A7.312,7.312,0,0,0,280.606,2460.75Zm29.6,32.38a7.306,7.306,0,1,0-.457,10.33A7.3,7.3,0,0,0,310.206,2493.13Zm29.6,32.39a7.306,7.306,0,1,0-.458,10.33A7.311,7.311,0,0,0,339.808,2525.52Zm29.6,32.38a7.306,7.306,0,1,0-.459,10.33A7.3,7.3,0,0,0,369.41,2557.9ZM66.629,2269.97a7.306,7.306,0,1,0-.458,10.32A7.311,7.311,0,0,0,66.629,2269.97Zm29.6,32.38a7.306,7.306,0,1,0-.458,10.33A7.3,7.3,0,0,0,96.231,2302.35Zm29.6,32.39a7.306,7.306,0,1,0-.458,10.33A7.311,7.311,0,0,0,125.832,2334.74Zm29.6,32.38a7.306,7.306,0,1,0-.458,10.33A7.3,7.3,0,0,0,155.434,2367.12Zm29.6,32.39a7.306,7.306,0,1,0-.458,10.33A7.311,7.311,0,0,0,185.035,2399.51Zm29.6,32.38a7.306,7.306,0,1,0-.458,10.33A7.3,7.3,0,0,0,214.636,2431.89Zm29.6,32.39a7.306,7.306,0,1,0-.458,10.33A7.311,7.311,0,0,0,244.238,2464.28Zm29.6,32.38a7.306,7.306,0,1,0-.458,10.33A7.3,7.3,0,0,0,273.84,2496.66Zm29.6,32.39a7.306,7.306,0,1,0-.458,10.33A7.311,7.311,0,0,0,303.441,2529.05Zm29.6,32.38a7.309,7.309,0,1,0-.458,10.33A7.3,7.3,0,0,0,333.042,2561.43Zm29.6,32.39a7.306,7.306,0,1,0-.458,10.33A7.311,7.311,0,0,0,362.644,2593.82ZM30.262,2273.5a7.306,7.306,0,1,0-.458,10.32A7.31,7.31,0,0,0,30.262,2273.5Zm29.6,32.38a7.306,7.306,0,1,0-.458,10.33A7.3,7.3,0,0,0,59.864,2305.88Zm29.6,32.39a7.306,7.306,0,1,0-.458,10.33A7.311,7.311,0,0,0,89.465,2338.27Zm29.6,32.38a7.306,7.306,0,1,0-.459,10.33A7.3,7.3,0,0,0,119.067,2370.65Zm29.6,32.39a7.306,7.306,0,1,0-.458,10.33A7.311,7.311,0,0,0,148.668,2403.04Zm29.6,32.38a7.305,7.305,0,1,0-.457,10.33A7.3,7.3,0,0,0,178.269,2435.42Zm29.6,32.39a7.306,7.306,0,1,0-.458,10.33A7.311,7.311,0,0,0,207.871,2467.81Zm29.6,32.38a7.309,7.309,0,1,0-.459,10.33A7.3,7.3,0,0,0,237.473,2500.19Zm29.6,32.39a7.306,7.306,0,1,0-.458,10.33A7.311,7.311,0,0,0,267.074,2532.58Zm29.6,32.38a7.309,7.309,0,1,0-.457,10.33A7.3,7.3,0,0,0,296.675,2564.96Zm29.6,32.39a7.306,7.306,0,1,0-.459,10.33A7.312,7.312,0,0,0,326.277,2597.35ZM23.5,2309.41a7.306,7.306,0,1,0-.458,10.33A7.3,7.3,0,0,0,23.5,2309.41Zm29.6,32.39a7.306,7.306,0,1,0-.458,10.33A7.311,7.311,0,0,0,53.1,2341.8Zm29.6,32.38a7.306,7.306,0,1,0-.457,10.33A7.3,7.3,0,0,0,82.7,2374.18Zm29.6,32.39a7.306,7.306,0,1,0-.458,10.33A7.311,7.311,0,0,0,112.3,2406.57Zm29.6,32.38a7.306,7.306,0,1,0-.457,10.33A7.3,7.3,0,0,0,141.9,2438.95Zm29.6,32.39a7.306,7.306,0,1,0-.458,10.33A7.312,7.312,0,0,0,171.5,2471.34Zm29.6,32.38a7.306,7.306,0,1,0-.458,10.33A7.3,7.3,0,0,0,201.105,2503.72Zm29.6,32.39a7.306,7.306,0,1,0-.458,10.33A7.311,7.311,0,0,0,230.707,2536.11Zm29.6,32.38a7.309,7.309,0,1,0-.458,10.33A7.3,7.3,0,0,0,260.308,2568.49Zm29.6,32.39a7.306,7.306,0,1,0-.458,10.33A7.312,7.312,0,0,0,289.91,2600.88Zm29.6,32.39a7.306,7.306,0,1,0-.458,10.32A7.293,7.293,0,0,0,319.511,2633.27ZM-12.871,2312.94a7.3,7.3,0,0,0-10.325-.46,7.3,7.3,0,0,0-.458,10.32,7.311,7.311,0,0,0,10.326.47A7.314,7.314,0,0,0-12.871,2312.94Zm29.6,32.39a7.306,7.306,0,1,0-.458,10.33A7.311,7.311,0,0,0,16.731,2345.33Zm29.6,32.38a7.306,7.306,0,1,0-.458,10.33A7.3,7.3,0,0,0,46.333,2377.71Zm29.6,32.39a7.306,7.306,0,1,0-.458,10.33A7.311,7.311,0,0,0,75.934,2410.1Zm29.6,32.38a7.306,7.306,0,1,0-.458,10.33A7.3,7.3,0,0,0,105.535,2442.48Zm29.6,32.39a7.306,7.306,0,1,0-.458,10.33A7.311,7.311,0,0,0,135.137,2474.87Zm29.6,32.38a7.309,7.309,0,1,0-.458,10.33A7.3,7.3,0,0,0,164.738,2507.25Zm29.6,32.39a7.306,7.306,0,1,0-.457,10.33A7.31,7.31,0,0,0,194.339,2539.64Zm29.6,32.38a7.309,7.309,0,1,0-.458,10.33A7.3,7.3,0,0,0,223.941,2572.02Zm29.6,32.39a7.306,7.306,0,1,0-.458,10.33A7.311,7.311,0,0,0,253.542,2604.41Zm29.6,32.38a7.309,7.309,0,1,0-.458,10.33A7.31,7.31,0,0,0,283.144,2636.79Zm-302.78-287.93a7.311,7.311,0,0,0-10.325-.47,7.314,7.314,0,0,0-.458,10.33,7.311,7.311,0,0,0,10.325.47A7.314,7.314,0,0,0-19.636,2348.86Zm29.6,32.38a7.306,7.306,0,1,0-.459,10.33A7.3,7.3,0,0,0,9.966,2381.24Zm29.6,32.39a7.306,7.306,0,1,0-.458,10.33A7.311,7.311,0,0,0,39.567,2413.63Zm29.6,32.38a7.309,7.309,0,1,0-.458,10.33A7.3,7.3,0,0,0,69.168,2446.01Zm29.6,32.39a7.306,7.306,0,1,0-.458,10.33A7.31,7.31,0,0,0,98.769,2478.4Zm29.6,32.38a7.309,7.309,0,1,0-.458,10.33A7.3,7.3,0,0,0,128.371,2510.78Zm29.6,32.39a7.306,7.306,0,1,0-.459,10.33A7.312,7.312,0,0,0,157.973,2543.17Zm29.6,32.38a7.309,7.309,0,1,0-.458,10.33A7.3,7.3,0,0,0,187.574,2575.55Zm29.6,32.39a7.306,7.306,0,1,0-.458,10.33A7.311,7.311,0,0,0,217.175,2607.94Zm29.6,32.39a7.306,7.306,0,1,0-.458,10.32A7.3,7.3,0,0,0,246.777,2640.33Zm29.6,32.38a7.306,7.306,0,1,0-.459,10.33A7.312,7.312,0,0,0,276.379,2672.71Z" transform="translate(-36 -2309)"/>
</svg>
