<svg 
 xmlns="http://www.w3.org/2000/svg"
 xmlns:xlink="http://www.w3.org/1999/xlink"
 width="98px" height="114px">
<path fill-rule="evenodd"
 d="M96.293,24.074 C89.616,26.251 88.273,26.672 81.597,28.849 C79.265,29.609 76.036,26.670 79.205,25.637 C85.881,23.460 87.224,23.039 93.900,20.862 C96.232,20.102 99.461,23.041 96.293,24.074 ZM88.810,10.535 C83.168,14.777 79.590,17.216 73.948,21.458 C71.977,22.940 67.980,21.222 70.658,19.208 C76.301,14.966 79.879,12.527 85.521,8.284 C87.492,6.803 91.488,8.521 88.810,10.535 ZM66.235,16.705 C65.233,18.959 60.898,19.417 62.261,16.355 C65.131,9.903 65.721,8.616 68.591,2.164 C69.593,-0.089 73.928,-0.548 72.566,2.515 C69.695,8.967 69.105,10.253 66.235,16.705 ZM82.032,44.813 C84.279,47.238 86.504,50.018 86.758,53.340 C87.201,59.142 81.706,63.509 76.824,66.708 C64.185,74.989 51.546,83.271 38.907,91.553 C34.593,94.379 30.033,97.497 28.087,102.282 C26.628,105.870 26.596,110.399 23.513,112.738 C21.331,114.395 18.226,114.298 15.746,113.206 C13.267,112.115 11.445,111.091 8.720,109.051 C5.886,107.167 4.310,105.792 2.451,103.821 C0.591,101.850 -0.543,98.955 0.284,96.342 C1.451,92.650 5.703,91.100 8.591,88.520 C12.441,85.079 13.845,79.733 15.057,74.718 C18.609,60.022 22.162,45.326 25.714,30.630 C27.086,24.954 29.352,18.308 34.962,16.778 C38.173,15.902 41.536,17.067 44.573,18.371 C51.402,21.302 57.543,24.661 64.641,29.692 C71.759,34.696 76.982,39.358 82.032,44.813 ZM36.564,27.197 C34.416,30.245 41.596,39.012 52.600,46.780 C63.605,54.548 74.266,58.374 76.413,55.326 C78.561,52.278 71.381,43.512 60.377,35.744 C49.372,27.977 38.711,24.150 36.564,27.197 Z"/>
</svg>