<svg xmlns="http://www.w3.org/2000/svg" width="600" height="100" viewBox="0 0 600 100">
  <path id="シェイプ_1012" data-name="シェイプ 1012" class="cls-1" d="M1060.11-982.8l-52.1,6.237-52.105,6.237L1149.5,205.5,612.178-858.14l-45.754,25.7-45.751,25.7L1149.5,205.5h-0.01L246.041-571.551,213.605-530.3l-32.431,41.254L1149.49,205.5,17.45-166.663,3.27-116.138-10.9-65.614,1149.5,205.5v0h0v0ZM-38.8,294.883l6.237,52.106,6.237,52.1L1149.5,205.5h0ZM1238.88,1393.8l52.11-6.24,52.1-6.23L1149.5,205.5ZM1149.5,205.5h0v0L1686.82,1269.14l45.76-25.7,45.75-25.71L1149.5,205.5l903.46,777.047,32.43-41.255,32.43-41.251L1149.5,205.5v0h0L2281.55,577.66l14.18-50.525,14.18-50.524L1149.5,205.5l1188.3-89.384-6.24-52.105-6.23-52.1ZM413.7,1141.39l41.254,32.43L1149.5,205.5,372.449,1108.96ZM2213.14-331.825l-25.7-45.751-25.71-45.751L1149.5,205.5l777.05-903.457-41.26-32.433-41.25-32.434L1149.5,205.5,1521.66-926.553l-50.52-14.176-50.53-14.178L1149.5,205.5h0ZM827.864,1351.73l50.525,14.17L1149.5,205.5,777.337,1337.55Zm-716.3-563.157,25.7,45.752L1149.5,205.5,85.86,742.822ZM1226.45-419.7l-27.68-2.148L1171.1-424l-21.05,629.934L981.211-401.313l-26.389,8.6L928.435-384.1,1150.05,205.936h0L761.679-290.475l-21.088,18.049-21.085,18.049L1150.05,205.936l-548.776-310L588.7-79.319,576.127-54.575,1150.05,205.936h0ZM524.416,129.544l-2.148,27.674-2.147,27.671,629.939,21.048h-0.01ZM1073.66,831.577l27.68,2.148,27.67,2.147,21.05-629.935Zm76.4-625.641h0v0L1318.9,813.186l26.39-8.605,26.39-8.605L1150.06,205.938l388.37,496.41,21.09-18.049,21.08-18.048L1150.06,205.938v0h0l548.78,310,12.57-24.744,12.58-24.743L1150.06,205.936l625.64,76.392,2.14-27.673,2.15-27.671ZM671.693,615.4l18.049,21.085L1150.06,205.937,653.644,594.314ZM1757.31,37.091L1748.7,10.7l-8.61-26.388-590.03,221.62L1646.47-182.44l-18.05-21.086-18.05-21.087L1150.06,205.936l310-548.782-24.75-12.574-24.74-12.573L1150.05,205.936h0.01ZM864.8,767.294l24.745,12.572L1150.06,205.937l-310,548.782ZM551.411,401.169l8.605,26.388,590.044-221.62L542.8,374.782Z" transform="translate(-937 -57)"/>
</svg>
